HIERARCHY
ROOT Hips
{
     OFFSET 1.88212 96.90440 -13.34250
     CHANNELS 6 Xposition Yposition Zposition Zrotation Xrotation Yrotation
     JOINT Spine
     {
          OFFSET 0.00000 11.89050 0.00000
          CHANNELS 3 Zrotation Xrotation Yrotation
          JOINT Spine1
          {
               OFFSET -0.00000 25.65740 0.12766
               CHANNELS 3 Zrotation Xrotation Yrotation
               JOINT HEad
               {
                    OFFSET 0.00000 8.73416 0.01134
                    CHANNELS 3 Zrotation Xrotation Yrotation
                    End Site
                    {
                         OFFSET -0.29000 12.77420 2.51395
                    }
               }
               JOINT LeftShoulder1
               {
                    OFFSET 8.99000 -0.36225 -0.22000
                    CHANNELS 3 Zrotation Xrotation Yrotation
                    JOINT LeftArm
                    {
                         OFFSET 10.28270 -0.00338 0.32212
                         CHANNELS 3 Zrotation Xrotation Yrotation
                         JOINT LeftForeArm
                         {
                              OFFSET 32.76690 0.09914 -1.42434
                              CHANNELS 3 Zrotation Xrotation Yrotation
                              JOINT LeftHand
                              {
                                   OFFSET 27.56430 0.08536 1.02216
                                   CHANNELS 3 Zrotation Xrotation Yrotation
                                   End Site
                                   {
                                        OFFSET 16.74430 -0.60000 1.50291
                                   }
                              }
                         }
                    }
               }
               JOINT RightShoulder
               {
                    OFFSET -8.99000 -0.36225 -0.22000
                    CHANNELS 3 Zrotation Xrotation Yrotation
                    JOINT RightArm
                    {
                         OFFSET -10.28270 -0.00338 0.32212
                         CHANNELS 3 Zrotation Xrotation Yrotation
                         JOINT RightForeArm
                         {
                              OFFSET -32.89710 0.09914 -1.42434
                              CHANNELS 3 Zrotation Xrotation Yrotation
                              JOINT RightHand
                              {
                                   OFFSET -27.49210 0.08536 1.02216
                                   CHANNELS 3 Zrotation Xrotation Yrotation
                                   End Site
                                   {
                                        OFFSET -16.63120 -0.60000 1.50291
                                   }
                              }
                         }
                    }
               }
          }
     }
     JOINT LeftUpLeg
     {
          OFFSET 8.94580 -8.66707 0.10165
          CHANNELS 3 Zrotation Xrotation Yrotation
          JOINT LeftLeg
          {
               OFFSET 0.00000 -44.42270 1.37270
               CHANNELS 3 Zrotation Xrotation Yrotation
               JOINT LeftFoot
               {
                    OFFSET -0.25355 -42.09240 -1.46059
                    CHANNELS 3 Zrotation Xrotation Yrotation
                    JOINT LeftToes
                    {
                         OFFSET -0.04000 -4.41509 8.49910
                         CHANNELS 3 Zrotation Xrotation Yrotation
                         End Site
                         {
                              OFFSET 0.08000 -0.04745 9.77979
                         }
                    }
               }
          }
     }
     JOINT RightUpLeg
     {
          OFFSET -8.94580 -8.66707 0.10165
          CHANNELS 3 Zrotation Xrotation Yrotation
          JOINT RightLeg
          {
               OFFSET 0.00000 -44.42270 1.37270
               CHANNELS 3 Zrotation Xrotation Yrotation
               JOINT RightFoot
               {
                    OFFSET 0.25355 -42.09240 -1.46059
                    CHANNELS 3 Zrotation Xrotation Yrotation
                    JOINT RightToes
                    {
                         OFFSET 0.04000 -4.41509 8.49910
                         CHANNELS 3 Zrotation Xrotation Yrotation
                         End Site
                         {
                              OFFSET -0.08000 -0.13745 9.77979
                         }
                    }
               }
          }
     }
}
MOTION
Frames: 17
Frame Time: 0.01667
84.90055 81.53185 -104.74052 -0.97467 2.23369 -68.29749 0.87377 28.33275 9.59490 -0.01637 -0.00948 -0.03620 -8.14348 -0.33810 -3.26904 -3.48592 -2.46823 -4.15693 7.97111 -26.84279 59.26627 -3.52745 18.43962 -92.50257 9.58934 9.12176 -6.19777 18.38705 1.88858 7.03889 35.33853 -13.54761 57.27563 9.54033 37.11937 117.50746 -5.99908 8.67642 0.30267 27.08688 -22.69650 19.55748 -26.91165 44.98114 35.59300 62.59214 0.01008 0.00006 -77.64926 -18.46157 -40.80273 -26.58299 -28.71992 22.74585 -340.55591 18.23694 329.40631 22.08270 -0.29121 -0.37320 1.41912 20.87981 -0.84380 
86.49263 83.37845 -102.67477 -1.63625 3.02912 -75.23555 2.15375 25.06654 6.03575 -0.01992 -0.00794 -0.03172 -10.37434 3.47638 3.21637 -6.16714 0.44864 5.12967 11.34434 -30.71809 50.70660 -3.28469 19.83095 -91.81860 3.89729 -3.05453 -10.36627 15.73862 7.47931 14.08081 35.30494 -16.52617 56.87061 10.22750 37.78150 116.47647 -6.92632 3.67620 2.51039 25.60174 -18.40058 16.33654 -25.79087 40.45684 34.46515 62.65667 0.00818 0.00078 -79.44585 -23.20159 -28.74512 -23.91036 -30.28973 21.13354 -333.61200 26.15246 333.07330 18.28300 -0.10174 -0.31971 0.04084 11.89271 2.83171 
87.79071 84.94721 -100.71204 -2.16870 3.60926 -80.96288 3.19162 21.77608 2.70513 -0.02667 0.04992 0.07718 -14.05903 7.10962 10.45170 -4.37362 -0.66462 2.37556 15.68978 -28.12059 53.03302 -3.86831 22.60123 -92.20787 10.60447 6.55923 -9.95664 16.37403 3.82382 11.93637 34.73479 -6.30368 58.15536 10.98881 38.32858 115.12748 -5.48198 5.14553 3.03119 23.68002 -15.18239 13.04248 -23.71128 36.95516 32.29798 62.70673 0.00592 -0.00002 -77.88776 -23.10274 -23.31894 -21.06132 -31.02990 18.37315 -331.06158 35.40882 338.59457 15.31495 -0.12603 -0.19585 -1.01396 2.93445 5.02977 
88.83732 86.21764 -98.94630 -2.62116 3.91622 -85.61095 3.94096 18.91239 -0.28260 -0.01986 0.05001 0.07573 -18.91435 9.53419 18.52869 -6.65115 1.96326 9.37920 17.63935 -32.12068 43.94764 -4.98700 25.81782 -93.64265 0.91056 2.33819 -10.89581 14.16555 8.57277 17.58952 34.77500 -8.22634 58.15555 11.86192 38.64975 113.92066 -6.30401 3.37274 4.06929 21.37992 -12.95364 9.71408 -20.85424 34.49743 29.49542 62.70933 0.00327 0.00230 -77.94182 -25.28750 -14.47248 -17.97995 -30.80517 14.73392 -334.37888 45.14616 346.98801 14.34300 -0.07916 -0.05865 -1.25132 -4.96592 5.29714 
89.68925 87.20317 -97.45439 -3.02193 3.97237 -89.28500 4.40635 16.44000 -2.98873 -0.01634 0.04647 0.06852 -24.31579 10.29268 27.18165 -8.65901 3.89057 14.69646 18.28082 -35.47107 34.64331 -6.44676 28.83171 -95.67179 10.60195 3.51952 -10.02680 12.01806 12.19835 22.01255 34.70900 -9.42511 58.31710 12.70566 38.83097 113.17766 -7.78020 22.71398 -4.24195 18.76025 -11.58659 6.36793 -17.24250 33.10557 26.39148 62.51141 -0.00436 0.01374 -77.63765 -26.21504 -7.70258 -14.70877 -29.49018 10.48804 -343.81763 51.46001 358.90594 13.66875 -0.05609 -0.02469 -1.61429 -10.30703 4.74698 
90.43015 87.92761 -96.24082 -3.37673 3.79839 -92.10813 4.57339 14.32190 -5.42875 -0.01473 0.04264 0.06132 -28.98316 10.01269 34.71813 -10.43137 5.32099 18.75829 17.45137 -38.24463 24.51212 -7.90128 31.61919 -97.83834 2.48719 7.83975 -8.40923 10.11141 14.92756 25.33423 34.53627 -10.20758 58.55964 13.52669 38.87032 112.82291 -8.26678 8.14503 1.83259 16.08797 -10.84614 3.08961 -15.02295 32.21599 24.97449 63.71404 0.01699 -0.05970 -78.41267 -27.87973 -1.68373 -12.08588 -27.92521 6.17468 -356.05508 54.30935 372.28497 13.59014 -0.03293 -0.00258 -4.59620 -19.04023 -12.64719 
91.10936 88.41318 -95.25589 -3.69733 3.41838 -94.19613 4.45056 12.53935 -7.61528 -0.01362 0.03918 0.05456 -32.80486 9.05945 41.10715 -11.81895 6.45813 21.89690 15.08697 -40.31784 13.34008 -9.50187 33.85126 -99.71416 8.04883 3.35194 -7.65202 8.57975 16.97630 27.69778 34.28117 -10.72161 58.84579 14.28403 38.79330 112.49731 -7.65512 17.75598 -2.06188 13.56735 -10.54007 -0.06673 -13.61700 31.85632 24.59442 65.65523 0.02620 -0.08160 -79.78743 -29.14136 2.49056 -10.14503 -26.41133 1.82990 -368.77588 53.46793 385.37000 14.16039 0.00964 -0.00003 -2.89353 -17.96920 -4.67995 
91.73479 88.70587 -94.42662 -3.99686 2.88520 -95.68658 4.07815 11.08207 -9.49379 -0.01336 0.03849 0.05257 -35.77360 7.77541 46.36082 -8.51476 8.43201 13.34467 15.53946 -38.66514 14.97223 -10.88263 35.94837 -101.96148 5.23400 9.91519 -6.62470 10.19883 14.38465 18.10868 33.89331 -1.31739 65.27099 15.24607 38.45378 111.69886 -8.02860 9.30521 1.71857 11.30621 -10.53818 -3.05107 -12.80541 31.92578 24.95843 68.06675 0.02461 -0.07847 -81.90588 -30.39609 5.60895 -8.77743 -24.11836 -1.85719 -378.06076 49.09385 394.40805 15.27364 0.01178 -0.00727 -6.49024 -24.51521 -26.60410 
92.31735 88.86873 -93.70513 -4.26028 2.30297 -96.72767 3.57213 9.93019 -11.08966 -0.01090 0.03684 0.04153 -37.98460 6.36569 50.62978 -9.68509 9.42919 16.24669 10.85737 -39.91031 1.78548 -12.60127 37.51618 -103.55892 5.87615 3.46504 -5.52780 9.30297 16.05563 20.07285 33.67146 -2.81592 64.94022 16.11127 38.06440 110.99107 -7.51667 14.54637 -0.82158 10.11592 -10.67174 -4.76564 -12.85411 32.28887 24.95114 71.03400 0.02146 -0.06959 -84.60373 -31.46899 7.49613 -8.03142 -21.36898 -4.85198 -383.26666 43.06961 399.17511 16.72284 0.00840 -0.01783 -3.10907 -21.16995 -20.45550 
92.88026 88.96454 -93.04713 -4.48731 1.73352 -97.47826 2.98036 9.07672 -12.37359 -0.01239 0.03439 0.03337 -39.51420 4.99202 54.03091 -10.36118 10.34302 18.16169 5.52317 -39.61927 -11.50370 -14.76689 38.45619 -104.34855 7.97959 10.07069 -6.10819 8.82111 17.37651 21.23302 34.07820 -7.10580 61.84427 17.53653 40.36140 113.00918 -7.99578 9.64694 1.82084 8.92965 -11.04438 -6.36690 -12.34662 33.45494 27.03788 73.47634 -0.00920 -0.00346 -88.97420 -32.12297 6.30095 -7.87443 -18.32864 -7.13637 -385.51151 36.49956 400.94153 18.28249 0.00510 -0.02701 -4.29617 -21.61695 -23.77438 
93.49052 89.03200 -92.41864 -4.65079 1.23574 -98.10825 2.37355 8.48262 -13.29009 -0.00831 0.03170 0.02603 -40.48163 3.75021 56.68227 -10.58291 11.19851 19.31842 0.62694 -37.25874 -23.91563 -17.53295 38.34941 -104.75269 9.27486 8.29262 12.30700 8.73913 18.40570 21.51130 34.28304 -9.57612 60.03586 18.51132 37.68219 110.44518 -4.27905 10.78126 3.36130 7.68705 -11.67054 -7.78687 -11.67772 35.12420 31.04902 75.81723 -0.01822 0.04540 -94.68966 -32.14981 2.51860 -8.29234 -14.65207 -8.72059 -386.05322 30.82374 398.54291 24.63613 0.10879 -0.19920 -7.59921 -20.42843 -19.65395 
94.22351 89.09194 -91.78029 -4.74475 0.84941 -98.74963 1.84111 9.35697 -13.44072 -0.02420 0.12294 0.04914 -40.65759 1.94647 57.53371 -9.93848 10.80643 18.86224 -1.69391 -35.41087 -29.68672 -18.82832 37.94426 -104.81252 7.08534 9.19061 -5.57660 9.30130 17.81911 20.84135 34.44705 -10.83901 58.94388 18.67902 36.50056 109.47031 -2.97247 7.27649 6.78979 6.51920 -12.51508 -8.94242 -11.86924 36.32472 35.18102 79.14456 -0.00467 0.06355 -100.17573 -31.81748 -0.87728 -9.25228 -10.34829 -9.61135 -385.02124 25.34985 393.26154 20.86171 -0.19227 -0.00224 -1.54042 -19.15908 -16.30156 
95.11581 89.15267 -91.09636 -4.78258 0.56787 -99.45355 1.42160 11.44644 -12.97986 -0.01431 0.11315 0.03753 -40.36381 -0.22378 57.08925 -8.78865 9.46685 17.41836 -2.49448 -34.24092 -31.17428 -19.28365 37.44591 -104.51698 8.36232 11.88106 3.82583 10.25178 16.08089 19.63215 34.57319 -11.37858 58.13718 18.35520 36.26920 109.68331 -12.03902 12.70706 -8.90105 5.54005 -13.49618 -9.80741 -12.44569 37.12872 39.13597 82.96918 -0.00633 0.06546 -105.31964 -31.19244 -3.79567 -10.81001 -5.59072 -9.86563 -382.84515 20.24112 388.59488 23.97426 0.07888 -0.01249 -2.55192 -18.17854 -12.89164 
96.16220 89.21826 -90.38152 -4.75734 0.36883 -100.24176 1.01441 13.30080 -12.31645 0.00609 0.00302 0.00501 -39.94714 -1.95762 56.61335 -7.64133 8.42939 15.74806 0.54999 -32.01277 -25.07317 -19.22246 35.27433 -103.85001 8.30284 10.72191 -2.79055 11.16195 14.62214 18.32823 34.67938 -11.59982 57.37304 17.81839 36.54301 110.71864 -7.70846 11.78289 -0.73399 4.83664 -14.54590 -10.36643 -13.15111 37.57738 42.71646 86.99924 -0.00971 0.06094 -110.08103 -30.33954 -6.23129 -12.27815 -1.36365 -9.82386 -380.08575 14.38338 383.05807 21.86872 -0.15593 0.03089 1.31425 -14.81495 -9.74925 
97.32701 89.29617 -89.68579 -4.62262 0.20771 -101.09989 0.61342 14.87295 -11.48820 0.00571 -0.00267 0.00271 -39.41895 -3.39913 55.95281 -6.58684 7.43865 14.40557 2.72175 -30.48287 -20.00697 -20.16664 33.29454 -99.05796 4.43453 11.02194 12.36326 11.97246 13.20930 17.20581 34.78912 -11.77537 56.67366 17.42867 36.80534 111.56998 -9.78239 11.18987 -5.55286 4.44142 -15.63830 -10.62811 -13.83757 37.70375 45.80211 91.04592 -0.01316 0.05367 -114.43253 -29.31772 -8.20381 -13.71194 2.25894 -9.56336 -377.61722 9.38199 379.22363 23.39115 0.03006 -0.00556 1.02449 -12.24268 -7.44087 
98.55832 89.39615 -89.07203 -4.38540 0.07286 -101.99245 0.22808 16.17675 -10.54281 0.00579 -0.00318 0.00210 -37.74011 -3.57057 54.64269 -5.68250 6.56854 13.32410 4.44910 -29.47379 -15.56066 -20.59383 32.16063 -97.75386 9.24769 10.77488 -2.37932 12.65285 11.94566 16.19584 34.91064 -11.94806 56.08079 17.13574 37.10541 112.43275 -7.28547 10.90678 -0.56754 4.30369 -16.73404 -10.64209 -13.98453 37.91306 48.09633 90.08463 0.00655 -0.01014 -113.94359 -28.21904 -9.79534 -15.10802 5.24492 -9.15403 -375.25977 4.96088 376.56085 22.81251 -0.00459 0.02494 2.33162 -9.71846 -6.16427 
99.80961 89.52667 -88.58234 -4.05551 -0.04479 -102.87254 -0.13642 17.23758 -9.53178 0.00426 -0.00254 0.00235 -36.11526 -3.62071 53.35081 -4.91126 5.79451 12.24751 5.81803 -28.79189 -11.62558 -20.67546 31.54839 -97.79808 5.78135 11.59251 3.68546 13.18676 10.81491 15.34625 35.06204 -12.19062 55.62059 17.05314 37.30073 112.99593 -8.41488 10.54785 -3.46727 4.45632 -17.73749 -10.43354 -14.09312 37.87868 49.86781 89.08501 0.00814 -0.01178 -113.13017 -27.04929 -10.97247 -16.43355 7.59719 -8.66473 -372.95416 1.07113 374.77432 23.00575 0.00106 0.00854 2.51537 -7.39632 -5.32209 
